<svg width="32" height="32" viewBox="0 0 32 32" fill="none" xmlns="http://www.w3.org/2000/svg">
<rect x="0.5" y="0.5" width="31" height="31" rx="3.5" fill="white"/>
<path d="M15.8122 16C17.61 16 19.0674 14.5076 19.0674 12.6666C19.0674 10.8257 17.61 9.33331 15.8122 9.33331C14.0145 9.33331 12.5571 10.8257 12.5571 12.6666C12.5571 14.5076 14.0145 16 15.8122 16Z" stroke="#FDC82F" stroke-linecap="round" stroke-linejoin="round"/>
<path d="M10.22 22.6667C10.22 20.0867 12.7264 18 15.8123 18C16.4373 18 17.0427 18.0867 17.6091 18.2467" stroke="#FDC82F" stroke-linecap="round" stroke-linejoin="round"/>
<path d="M22.3225 20C22.3225 20.2133 22.2964 20.42 22.2443 20.62C22.1857 20.8866 22.0816 21.1466 21.9448 21.3733C21.4956 22.1466 20.6689 22.6666 19.7184 22.6666C19.0478 22.6666 18.4424 22.4066 17.9866 21.98C17.7913 21.8066 17.6221 21.6 17.4919 21.3733C17.251 20.9733 17.1143 20.5 17.1143 20C17.1143 19.28 17.3942 18.62 17.8499 18.14C18.3252 17.64 18.9892 17.3333 19.7184 17.3333C20.4866 17.3333 21.1831 17.6733 21.6519 18.22C22.0685 18.6933 22.3225 19.32 22.3225 20Z" stroke="#FDC82F" stroke-miterlimit="10" stroke-linecap="round" stroke-linejoin="round"/>
<path d="M20.6886 19.9866H18.7485" stroke="#FDC82F" stroke-miterlimit="10" stroke-linecap="round" stroke-linejoin="round"/>
<rect x="0.5" y="0.5" width="31" height="31" rx="3.5" stroke="#FDC82F"/>
</svg>
