<svg width="20" height="20" viewBox="0 0 20 20" fill="none" xmlns="http://www.w3.org/2000/svg">
<path d="M8.95828 2.04166C9.54161 1.55 10.4833 1.55 11.0499 2.04166L12.3666 3.16666C12.6166 3.375 13.0916 3.55 13.4249 3.55H14.8416C15.7249 3.55 16.4499 4.275 16.4499 5.15833V6.57499C16.4499 6.90833 16.6249 7.37499 16.8333 7.62499L17.9583 8.94166C18.4499 9.52499 18.4499 10.4667 17.9583 11.0333L16.8333 12.35C16.6249 12.6 16.4499 13.0667 16.4499 13.4V14.8167C16.4499 15.7 15.7249 16.425 14.8416 16.425H13.4249C13.0916 16.425 12.6249 16.6 12.3749 16.8083L11.0583 17.9333C10.4749 18.425 9.53328 18.425 8.96661 17.9333L7.64994 16.8083C7.39994 16.6 6.92494 16.425 6.59994 16.425H5.14161C4.25828 16.425 3.53328 15.7 3.53328 14.8167V13.3917C3.53328 13.0667 3.36661 12.5917 3.15828 12.35L2.03328 11.025C1.54994 10.45 1.54994 9.51666 2.03328 8.94166L3.15828 7.61666C3.36661 7.36666 3.53328 6.89999 3.53328 6.57499V5.16666C3.53328 4.28333 4.25828 3.55833 5.14161 3.55833H6.58328C6.91661 3.55833 7.38328 3.38333 7.63328 3.175L8.95828 2.04166Z" stroke="#008542" stroke-linecap="round" stroke-linejoin="round"/>
<path d="M10 6.77499V10.8" stroke="#008542" stroke-linecap="round" stroke-linejoin="round"/>
<path d="M9.99536 13.3333H10.0028" stroke="#008542" stroke-linecap="round" stroke-linejoin="round"/>
</svg>
