<svg width="138" height="48" viewBox="0 0 138 48" fill="none" xmlns="http://www.w3.org/2000/svg">
<path d="M138 35.7045H0V48H138V35.7045Z" fill="#006298"/>
<path d="M2.09723 45.5464L5.7884 38.2974H8.05344L8.7525 45.5464H6.73916L6.65528 44.0409H4.69783L4.05467 45.5464H2.09723ZM5.42488 42.5631H6.65528L6.57138 39.9424L5.42488 42.5631Z" fill="white"/>
<path d="M12.7231 42.2286C12.6392 42.6467 12.5833 43.0092 12.5833 43.2601C12.5833 43.5947 12.6672 43.8456 12.807 43.9572C12.9468 44.0687 13.1706 44.1245 13.4222 44.1245C13.618 44.1245 13.7857 44.0965 13.8976 44.0408C14.0374 43.985 14.1492 43.9014 14.2331 43.7341C14.317 43.5947 14.4009 43.3995 14.4848 43.1486C14.5687 42.8977 14.6526 42.591 14.7085 42.2006L15.5474 38.2415H17.4769L16.5821 42.591C16.4702 43.0928 16.3304 43.5389 16.1626 43.9293C15.9948 44.3196 15.7711 44.6263 15.4915 44.8772C15.2119 45.1282 14.9043 45.3233 14.5407 45.4348C14.1772 45.5743 13.7298 45.63 13.2545 45.63C12.807 45.63 12.4155 45.5743 12.08 45.4628C11.7444 45.3513 11.4927 45.2118 11.269 45.0167C11.0733 44.8215 10.9055 44.5706 10.8216 44.2917C10.7098 44.013 10.6818 43.7062 10.6818 43.3438C10.6818 43.0092 10.7377 42.6467 10.8216 42.2564L11.6605 38.2694H13.5899L12.7231 42.2286Z" fill="white"/>
<path d="M19.9378 45.5464L21.1122 39.8308H19.0989L19.4065 38.2695H25.3627L25.0271 39.8308H23.0138L21.8393 45.5464H19.9378Z" fill="white"/>
<path d="M26.817 45.0167C26.5654 44.7936 26.3696 44.5427 26.2298 44.2081C26.09 43.8736 26.0341 43.4833 26.0341 43.0092C26.0341 42.842 26.0341 42.6747 26.0621 42.5074C26.09 42.3401 26.118 42.145 26.1459 41.9498C26.2578 41.3922 26.3976 40.8624 26.5933 40.3884C26.7891 39.9145 27.0128 39.5241 27.3204 39.1895C27.628 38.855 27.9635 38.6041 28.4109 38.4368C28.8304 38.2695 29.3338 38.158 29.8931 38.158C30.3125 38.158 30.704 38.2138 31.0395 38.3253C31.3751 38.4368 31.6827 38.5762 31.9344 38.7992C32.186 39.0223 32.3818 39.2732 32.5216 39.6356C32.6614 39.9702 32.7174 40.3884 32.7174 40.8345C32.7174 41.0018 32.7174 41.1691 32.6894 41.3364C32.6614 41.5037 32.6334 41.6989 32.6055 41.894C32.4937 42.4516 32.3539 42.9814 32.1581 43.4553C31.9623 43.9294 31.7386 44.3197 31.431 44.6542C31.1235 44.9888 30.7879 45.2397 30.3405 45.407C29.921 45.5743 29.4176 45.6858 28.8584 45.6858C28.439 45.6858 28.0474 45.6301 27.7119 45.5186C27.3763 45.407 27.0688 45.2397 26.817 45.0167ZM28.2432 43.8736C28.4109 44.0687 28.6627 44.1524 29.0262 44.1524C29.2219 44.1524 29.3897 44.1245 29.5575 44.0687C29.7252 44.0129 29.865 43.9014 30.0049 43.7342C30.1447 43.5668 30.2566 43.3438 30.3684 43.065C30.4803 42.7862 30.5642 42.3959 30.648 41.9498C30.676 41.7267 30.704 41.5594 30.7319 41.3643C30.7599 41.197 30.7599 41.0297 30.7599 40.8903C30.7599 40.4721 30.676 40.1654 30.5082 39.9702C30.3405 39.803 30.0887 39.7193 29.7532 39.7193C29.5295 39.7193 29.3338 39.7472 29.166 39.8308C28.9982 39.9145 28.8584 40.026 28.7186 40.1933C28.5788 40.3606 28.4669 40.5836 28.383 40.8903C28.2711 41.1691 28.1872 41.5315 28.1313 41.9498C28.1034 42.1728 28.0754 42.368 28.0474 42.5353C28.0195 42.7026 28.0195 42.8698 28.0195 43.0092C27.9915 43.3717 28.0754 43.6784 28.2432 43.8736Z" fill="white"/>
<path d="M34.1992 43.8735C34.4789 43.9292 34.7585 43.985 35.0661 44.0407C35.3737 44.0965 35.7093 44.1244 36.0728 44.1244C36.4643 44.1244 36.7439 44.0965 36.9397 44.0129C37.1354 43.9292 37.2753 43.7898 37.3312 43.5668C37.3591 43.4831 37.3591 43.4274 37.3591 43.3716C37.3591 43.2879 37.3312 43.2043 37.3032 43.1207C37.2472 43.037 37.1914 42.9813 37.1074 42.8976C37.0235 42.814 36.9117 42.7582 36.7719 42.6746C36.6321 42.5909 36.4643 42.5072 36.2686 42.4237C36.0728 42.34 35.905 42.2285 35.7093 42.1169C35.5135 42.0054 35.3457 41.8939 35.178 41.7266C35.0102 41.5872 34.8983 41.392 34.8145 41.1969C34.7306 41.0017 34.6746 40.7787 34.6746 40.4998C34.6746 40.3047 34.7026 40.1095 34.7585 39.9143C34.8983 39.3567 35.2059 38.9385 35.7093 38.6318C36.2126 38.3251 36.8279 38.1857 37.6108 38.1857C38.0582 38.1857 38.4776 38.2415 38.8411 38.3251C39.2047 38.4088 39.5403 38.5203 39.8199 38.6318L39.5682 39.8865C39.2886 39.8307 38.981 39.7749 38.7013 39.7471C38.4218 39.7191 38.1421 39.6913 37.8345 39.6913C37.4151 39.6913 37.1074 39.7191 36.9397 39.8028C36.7719 39.8865 36.66 40.0258 36.6321 40.1932C36.6321 40.221 36.6321 40.2768 36.6321 40.3326C36.6321 40.5277 36.716 40.6671 36.8558 40.7787C37.0235 40.8902 37.2472 41.0296 37.5549 41.1689C37.7506 41.2526 37.9464 41.3641 38.1421 41.4757C38.3378 41.5872 38.5336 41.7266 38.7013 41.866C38.8692 42.0054 39.009 42.2006 39.1208 42.3957C39.2327 42.5909 39.2886 42.8418 39.2886 43.1485C39.2886 43.3159 39.2606 43.4831 39.2327 43.6783C39.1488 44.0686 39.009 44.3753 38.8132 44.6262C38.6175 44.8772 38.3937 45.0723 38.1421 45.2396C37.8904 45.379 37.6108 45.4905 37.3032 45.5463C36.9956 45.6021 36.716 45.6299 36.4084 45.6299C35.933 45.6299 35.5135 45.5742 35.0941 45.4627C34.6746 45.3512 34.3111 45.2396 34.0035 45.1281L34.1992 43.8735Z" fill="white"/>
<path d="M40.8547 45.5464L42.3368 38.2695H46.9508L46.6432 39.803H43.8748L43.6231 41.0856H46.056L45.7484 42.5911H43.2876L43.0079 44.0409H45.9161L45.6086 45.5464H40.8547Z" fill="white"/>
<path d="M47.6216 45.5464L49.1036 38.2974H51.7042C52.0677 38.2974 52.4033 38.3532 52.683 38.4647C52.9625 38.5762 53.2142 38.7156 53.382 38.8829C53.5778 39.0502 53.7176 39.2732 53.8015 39.5241C53.8853 39.7751 53.9413 40.026 53.9413 40.3048C53.9413 40.3885 53.9413 40.4443 53.9413 40.5278C53.9413 40.6115 53.9133 40.6673 53.9133 40.7509C53.8294 41.2249 53.6616 41.6152 53.382 41.9219C53.1023 42.2286 52.7668 42.4516 52.4033 42.619L52.599 43.7899C52.627 43.9294 52.6549 44.0409 52.683 44.0966C52.7388 44.1803 52.7948 44.236 52.8507 44.2918C52.9346 44.3475 53.0185 44.3755 53.1304 44.3755C53.2422 44.3755 53.382 44.4033 53.5498 44.4033L53.3261 45.5464C53.0744 45.6301 52.7948 45.6858 52.4592 45.6858C51.9839 45.6858 51.6203 45.6022 51.3686 45.4071C51.117 45.2119 50.9492 44.8773 50.8933 44.3755L50.6975 42.9257H49.9985L49.4392 45.6022H47.6216V45.5464ZM50.2781 41.4758H50.9772C51.0891 41.4758 51.2009 41.4758 51.3128 41.448C51.4246 41.42 51.5365 41.3922 51.6203 41.3364C51.7042 41.2807 51.7881 41.197 51.872 41.0855C51.9559 40.9739 51.9839 40.8624 52.0398 40.6952C52.0677 40.5837 52.0677 40.5 52.0677 40.4163C52.0677 40.1654 51.9839 39.9982 51.8161 39.8866C51.6483 39.7751 51.4526 39.7193 51.2009 39.7193H50.6416L50.2781 41.4758Z" fill="white"/>
<path d="M56.4862 45.5464L55.787 38.2695H57.9123L57.9962 43.567L60.2892 38.2695H62.3305L58.6394 45.5464H56.4862Z" fill="white"/>
<path d="M62.61 45.5464L64.12 38.2695H66.0216L64.5395 45.5464H62.61Z" fill="white"/>
<path d="M71.782 45.3512C71.5304 45.4349 71.2507 45.5186 70.9711 45.5743C70.6635 45.6301 70.3839 45.658 70.0763 45.658C69.6009 45.658 69.1535 45.6022 68.8179 45.4628C68.4543 45.3512 68.1747 45.1561 67.951 44.9331C67.7273 44.71 67.5595 44.4312 67.4476 44.0966C67.3358 43.762 67.2799 43.4275 67.2799 43.0372C67.2799 42.7862 67.3078 42.5353 67.3358 42.2844C67.3638 42.0055 67.4197 41.7546 67.5036 41.4479C67.6434 40.9182 67.8112 40.4721 68.0349 40.0539C68.2586 39.6356 68.5103 39.3011 68.8179 39.0223C69.1255 38.7434 69.461 38.5204 69.8805 38.381C70.272 38.2416 70.7194 38.158 71.2227 38.158C71.6422 38.158 72.0057 38.2138 72.3133 38.2973C72.621 38.381 72.9005 38.4925 73.1802 38.6041L72.9285 39.8587C72.7608 39.803 72.537 39.775 72.3133 39.7472C72.0896 39.7193 71.838 39.6914 71.5862 39.6914C71.2787 39.6914 70.999 39.7193 70.7474 39.803C70.5237 39.8865 70.3 39.9981 70.1321 40.1654C69.9644 40.3326 69.8246 40.5836 69.6847 40.8624C69.5729 41.1413 69.461 41.5037 69.3772 41.9219C69.3492 42.0892 69.3212 42.2565 69.2933 42.4237C69.2653 42.5631 69.2653 42.7026 69.2653 42.842C69.2653 43.3438 69.4051 43.6784 69.7127 43.8736C69.9923 44.0687 70.4398 44.1524 71.055 44.1524C71.1668 44.1524 71.3346 44.1524 71.5304 44.1524C71.7261 44.1524 71.9218 44.1245 72.0896 44.1245L71.782 45.3512Z" fill="white"/>
<path d="M73.7954 45.5464L75.2775 38.2695H77.2069L75.6969 45.5464H73.7954Z" fill="white"/>
<path d="M79.1925 45.0167C78.9409 44.7936 78.7451 44.5427 78.6053 44.2081C78.4655 43.8736 78.4095 43.4833 78.4095 43.0092C78.4095 42.842 78.4095 42.6747 78.4376 42.5074C78.4655 42.3401 78.4935 42.145 78.5214 41.9498C78.6333 41.3922 78.7731 40.8624 78.9688 40.3884C79.1646 39.9145 79.3883 39.5241 79.6959 39.1895C80.0035 38.855 80.3391 38.6041 80.7865 38.4368C81.2059 38.2695 81.7089 38.158 82.2686 38.158C82.6881 38.158 83.0791 38.2138 83.4148 38.3253C83.7504 38.4368 84.0584 38.5762 84.3101 38.7992C84.5618 39.0223 84.7574 39.2732 84.8975 39.6356C85.0368 39.9702 85.093 40.3884 85.093 40.8345C85.093 41.0018 85.093 41.1691 85.0645 41.3364C85.0368 41.5037 85.0091 41.6989 84.9806 41.894C84.869 42.4516 84.7297 42.9814 84.5333 43.4553C84.3378 43.9294 84.1138 44.3197 83.8066 44.6542C83.4987 44.9888 83.1631 45.2397 82.7158 45.407C82.2962 45.5743 81.7928 45.6858 81.2339 45.6858C80.8144 45.6858 80.4229 45.6301 80.0874 45.5186C79.7239 45.407 79.4443 45.2397 79.1925 45.0167ZM80.5907 43.8736C80.7585 44.0687 81.0102 44.1524 81.3737 44.1524C81.5696 44.1524 81.7374 44.1245 81.9052 44.0687C82.073 44.0129 82.2123 43.9014 82.3525 43.7342C82.4926 43.5668 82.6042 43.3438 82.7158 43.065C82.8274 42.7862 82.9113 42.3959 82.9952 41.9498C83.0237 41.7267 83.0514 41.5594 83.0791 41.3643C83.1077 41.197 83.1077 41.0297 83.1077 40.8903C83.1077 40.4721 83.0237 40.1654 82.8559 39.9702C82.6881 39.803 82.4364 39.7193 82.1007 39.7193C81.8767 39.7193 81.6812 39.7472 81.5134 39.8308C81.3458 39.9145 81.2059 40.026 81.0661 40.1933C80.9263 40.3606 80.8144 40.5836 80.7305 40.8903C80.6187 41.1691 80.5348 41.5315 80.4789 41.9498C80.4509 42.1728 80.4229 42.368 80.395 42.5353C80.367 42.7026 80.367 42.8698 80.367 43.0092C80.367 43.3717 80.4509 43.6784 80.5907 43.8736Z" fill="white"/>
<path d="M90.1545 42.6189C90.0143 42.4795 89.9304 42.2843 89.9304 42.0334C89.9304 41.7267 90.0143 41.5037 90.2099 41.3085C90.4062 41.1412 90.6579 41.0576 90.9927 41.0576C91.273 41.0576 91.4685 41.1134 91.6363 41.2527C91.7765 41.3921 91.8604 41.5873 91.8604 41.8382C91.8604 42.1449 91.7765 42.368 91.5801 42.5352C91.3846 42.7026 91.1329 42.7862 90.7972 42.7862C90.5178 42.7862 90.3223 42.7304 90.1545 42.6189Z" fill="white"/>
<path d="M96.5856 45.5464L98.0683 38.2974H100.222C100.696 38.2974 101.116 38.3532 101.452 38.4926C101.787 38.6319 102.067 38.8271 102.262 39.0502C102.459 39.3011 102.626 39.5799 102.71 39.8866C102.793 40.2212 102.85 40.5557 102.85 40.9182C102.85 41.0855 102.85 41.2807 102.822 41.448C102.793 41.6431 102.766 41.8104 102.738 42.0055C102.626 42.5631 102.486 43.065 102.262 43.4833C102.067 43.9294 101.787 44.2918 101.479 44.5706C101.172 44.8773 100.808 45.1003 100.389 45.2677C99.9698 45.4349 99.5217 45.5186 99.019 45.5186H96.5856V45.5464ZM97.7604 44.7101H98.9905C99.4101 44.7101 99.8019 44.6543 100.109 44.5427C100.417 44.4312 100.669 44.264 100.892 44.013C101.116 43.7899 101.284 43.5111 101.424 43.1487C101.563 42.8141 101.675 42.4238 101.731 41.9777C101.787 41.6152 101.815 41.2807 101.815 40.9461C101.815 40.6673 101.787 40.4443 101.731 40.1933C101.675 39.9702 101.592 39.7751 101.452 39.6078C101.312 39.4405 101.144 39.329 100.92 39.2175C100.696 39.1338 100.417 39.078 100.109 39.078H98.9351L97.7604 44.7101Z" fill="white"/>
<path d="M96.5856 45.5464L98.0683 38.2974H100.222C100.696 38.2974 101.116 38.3532 101.452 38.4926C101.787 38.6319 102.067 38.8271 102.262 39.0502C102.459 39.3011 102.626 39.5799 102.71 39.8866C102.793 40.2212 102.85 40.5557 102.85 40.9182C102.85 41.0855 102.85 41.2807 102.822 41.448C102.793 41.6431 102.766 41.8104 102.738 42.0055C102.626 42.5631 102.486 43.065 102.262 43.4833C102.067 43.9294 101.787 44.2918 101.479 44.5706C101.172 44.8773 100.808 45.1003 100.389 45.2677C99.9698 45.4349 99.5217 45.5186 99.019 45.5186H96.5856V45.5464ZM97.7604 44.7101H98.9905C99.4101 44.7101 99.8019 44.6543 100.109 44.5427C100.417 44.4312 100.669 44.264 100.892 44.013C101.116 43.7899 101.284 43.5111 101.424 43.1487C101.563 42.8141 101.675 42.4238 101.731 41.9777C101.787 41.6152 101.815 41.2807 101.815 40.9461C101.815 40.6673 101.787 40.4443 101.731 40.1933C101.675 39.9702 101.592 39.7751 101.452 39.6078C101.312 39.4405 101.144 39.329 100.92 39.2175C100.696 39.1338 100.417 39.078 100.109 39.078H98.9351L97.7604 44.7101Z" stroke="white" stroke-width="0.0343249" stroke-miterlimit="10"/>
<path d="M106.317 45.4907C106.149 45.5464 105.981 45.5743 105.786 45.5743C105.422 45.5743 105.143 45.4907 104.975 45.3513C104.807 45.2118 104.695 44.9888 104.695 44.71C104.695 44.6542 104.695 44.5985 104.695 44.5427C104.695 44.4869 104.723 44.4311 104.723 44.3476L105.506 40.5836H106.485L105.702 44.3476C105.674 44.4311 105.674 44.5148 105.674 44.5706C105.674 44.71 105.729 44.8215 105.842 44.8773C105.953 44.933 106.149 44.9609 106.401 44.9609L106.317 45.4907ZM106.289 39.5799C105.926 39.5799 105.729 39.4126 105.729 39.0501C105.729 38.855 105.786 38.7155 105.897 38.5762C106.01 38.4646 106.177 38.4089 106.401 38.4089C106.764 38.4089 106.96 38.5762 106.96 38.9386C106.96 39.1338 106.904 39.2732 106.792 39.4126C106.68 39.5242 106.512 39.5799 106.289 39.5799Z" fill="white"/>
<path d="M106.317 45.4907C106.149 45.5464 105.981 45.5743 105.786 45.5743C105.422 45.5743 105.143 45.4907 104.975 45.3513C104.807 45.2118 104.695 44.9888 104.695 44.71C104.695 44.6542 104.695 44.5985 104.695 44.5427C104.695 44.4869 104.723 44.4311 104.723 44.3476L105.506 40.5836H106.485L105.702 44.3476C105.674 44.4311 105.674 44.5148 105.674 44.5706C105.674 44.71 105.729 44.8215 105.842 44.8773C105.953 44.933 106.149 44.9609 106.401 44.9609L106.317 45.4907ZM106.289 39.5799C105.926 39.5799 105.729 39.4126 105.729 39.0501C105.729 38.855 105.786 38.7155 105.897 38.5762C106.01 38.4646 106.177 38.4089 106.401 38.4089C106.764 38.4089 106.96 38.5762 106.96 38.9386C106.96 39.1338 106.904 39.2732 106.792 39.4126C106.68 39.5242 106.512 39.5799 106.289 39.5799Z" stroke="white" stroke-width="0.0343249" stroke-miterlimit="10"/>
<path d="M108.358 46.9126C108.61 46.9684 108.862 46.9962 109.113 47.0242C109.336 47.052 109.561 47.052 109.785 47.052C110.092 47.052 110.371 47.0242 110.567 46.9684C110.791 46.9126 110.958 46.8011 111.126 46.6896C111.266 46.5501 111.378 46.4107 111.49 46.1877C111.574 45.9925 111.657 45.7694 111.714 45.4907L111.825 44.9331C111.657 45.1282 111.434 45.2955 111.21 45.407C110.958 45.5185 110.679 45.6022 110.343 45.6022C110.036 45.6022 109.756 45.5464 109.533 45.4628C109.309 45.3791 109.113 45.2398 108.973 45.0724C108.834 44.9052 108.721 44.71 108.666 44.487C108.61 44.2639 108.582 44.013 108.582 43.762C108.582 43.5669 108.61 43.3717 108.638 43.1487C108.666 42.9535 108.721 42.7304 108.778 42.5352C108.862 42.2286 108.973 41.9498 109.113 41.6988C109.253 41.4479 109.42 41.2249 109.617 41.0576C109.812 40.8624 110.036 40.723 110.288 40.6393C110.539 40.5278 110.819 40.4721 111.126 40.4721C111.35 40.4721 111.546 40.4999 111.714 40.5557C111.882 40.6115 112.022 40.6673 112.161 40.7508C112.273 40.8345 112.385 40.9182 112.469 41.0297C112.553 41.1412 112.608 41.2527 112.664 41.3364L112.916 40.5836H113.699L112.664 45.5743C112.497 46.355 112.217 46.9126 111.77 47.2751C111.323 47.6375 110.735 47.8048 110.008 47.8048C109.728 47.8048 109.449 47.7769 109.169 47.749C108.862 47.6933 108.582 47.6375 108.274 47.5538L108.358 46.9126ZM112.245 42.7862C112.245 42.7026 112.273 42.6189 112.273 42.5352C112.273 42.4517 112.301 42.368 112.301 42.3122C112.301 42.0056 112.217 41.7546 112.049 41.5595C111.882 41.3364 111.602 41.2527 111.183 41.2527C110.763 41.2527 110.455 41.3921 110.232 41.643C110.008 41.894 109.812 42.2565 109.701 42.7026C109.644 42.8978 109.588 43.065 109.561 43.2323C109.533 43.3996 109.504 43.5669 109.504 43.7063C109.504 44.0687 109.588 44.3476 109.756 44.5427C109.924 44.7379 110.204 44.8494 110.567 44.8494C111.015 44.8494 111.378 44.71 111.63 44.4033C111.882 44.0966 112.077 43.6784 112.189 43.1208L112.245 42.7862Z" fill="white"/>
<path d="M108.358 46.9126C108.61 46.9684 108.862 46.9962 109.113 47.0242C109.336 47.052 109.561 47.052 109.785 47.052C110.092 47.052 110.371 47.0242 110.567 46.9684C110.791 46.9126 110.958 46.8011 111.126 46.6896C111.266 46.5501 111.378 46.4107 111.49 46.1877C111.574 45.9925 111.657 45.7694 111.714 45.4907L111.825 44.9331C111.657 45.1282 111.434 45.2955 111.21 45.407C110.958 45.5185 110.679 45.6022 110.343 45.6022C110.036 45.6022 109.756 45.5464 109.533 45.4628C109.309 45.3791 109.113 45.2398 108.973 45.0724C108.834 44.9052 108.721 44.71 108.666 44.487C108.61 44.2639 108.582 44.013 108.582 43.762C108.582 43.5669 108.61 43.3717 108.638 43.1487C108.666 42.9535 108.721 42.7304 108.778 42.5352C108.862 42.2286 108.973 41.9498 109.113 41.6988C109.253 41.4479 109.42 41.2249 109.617 41.0576C109.812 40.8624 110.036 40.723 110.288 40.6393C110.539 40.5278 110.819 40.4721 111.126 40.4721C111.35 40.4721 111.546 40.4999 111.714 40.5557C111.882 40.6115 112.022 40.6673 112.161 40.7508C112.273 40.8345 112.385 40.9182 112.469 41.0297C112.553 41.1412 112.608 41.2527 112.664 41.3364L112.916 40.5836H113.699L112.664 45.5743C112.497 46.355 112.217 46.9126 111.77 47.2751C111.323 47.6375 110.735 47.8048 110.008 47.8048C109.728 47.8048 109.449 47.7769 109.169 47.749C108.862 47.6933 108.582 47.6375 108.274 47.5538L108.358 46.9126ZM112.245 42.7862C112.245 42.7026 112.273 42.6189 112.273 42.5352C112.273 42.4517 112.301 42.368 112.301 42.3122C112.301 42.0056 112.217 41.7546 112.049 41.5595C111.882 41.3364 111.602 41.2527 111.183 41.2527C110.763 41.2527 110.455 41.3921 110.232 41.643C110.008 41.894 109.812 42.2565 109.701 42.7026C109.644 42.8978 109.588 43.065 109.561 43.2323C109.533 43.3996 109.504 43.5669 109.504 43.7063C109.504 44.0687 109.588 44.3476 109.756 44.5427C109.924 44.7379 110.204 44.8494 110.567 44.8494C111.015 44.8494 111.378 44.71 111.63 44.4033C111.882 44.0966 112.077 43.6784 112.189 43.1208L112.245 42.7862Z" stroke="white" stroke-width="0.0343249" stroke-miterlimit="10"/>
<path d="M117.083 45.4907C116.916 45.5464 116.748 45.5743 116.551 45.5743C116.188 45.5743 115.909 45.4907 115.741 45.3513C115.573 45.2118 115.461 44.9888 115.461 44.71C115.461 44.6542 115.461 44.5985 115.461 44.5427C115.461 44.4869 115.489 44.4311 115.489 44.3476L116.272 40.5836H117.251L116.468 44.3476C116.44 44.4311 116.44 44.5148 116.44 44.5706C116.44 44.71 116.496 44.8215 116.608 44.8773C116.719 44.933 116.916 44.9609 117.167 44.9609L117.083 45.4907ZM117.055 39.5799C116.692 39.5799 116.496 39.4126 116.496 39.0501C116.496 38.855 116.551 38.7155 116.664 38.5762C116.775 38.4646 116.943 38.4089 117.167 38.4089C117.531 38.4089 117.726 38.5762 117.726 38.9386C117.726 39.1338 117.67 39.2732 117.558 39.4126C117.419 39.5242 117.251 39.5799 117.055 39.5799Z" fill="white"/>
<path d="M117.083 45.4907C116.916 45.5464 116.748 45.5743 116.551 45.5743C116.188 45.5743 115.909 45.4907 115.741 45.3513C115.573 45.2118 115.461 44.9888 115.461 44.71C115.461 44.6542 115.461 44.5985 115.461 44.5427C115.461 44.4869 115.489 44.4311 115.489 44.3476L116.272 40.5836H117.251L116.468 44.3476C116.44 44.4311 116.44 44.5148 116.44 44.5706C116.44 44.71 116.496 44.8215 116.608 44.8773C116.719 44.933 116.916 44.9609 117.167 44.9609L117.083 45.4907ZM117.055 39.5799C116.692 39.5799 116.496 39.4126 116.496 39.0501C116.496 38.855 116.551 38.7155 116.664 38.5762C116.775 38.4646 116.943 38.4089 117.167 38.4089C117.531 38.4089 117.726 38.5762 117.726 38.9386C117.726 39.1338 117.67 39.2732 117.558 39.4126C117.419 39.5242 117.251 39.5799 117.055 39.5799Z" stroke="white" stroke-width="0.0343249" stroke-miterlimit="10"/>
<path d="M121.892 45.5187C121.781 45.5465 121.641 45.6022 121.445 45.6302C121.277 45.658 121.11 45.6859 120.914 45.6859C120.439 45.6859 120.103 45.5744 119.852 45.3792C119.628 45.1841 119.516 44.8774 119.516 44.487C119.516 44.4034 119.516 44.3476 119.544 44.2639C119.544 44.1804 119.571 44.0967 119.571 44.013L120.131 41.3364H119.18L119.292 40.8067L120.271 40.6394L120.578 39.106H121.558L121.25 40.6116H122.759L122.62 41.3364H121.11L120.578 43.9294C120.551 44.013 120.551 44.0688 120.551 44.1246C120.551 44.1804 120.523 44.2639 120.523 44.3197C120.523 44.5428 120.578 44.6822 120.719 44.7937C120.858 44.9052 121.082 44.961 121.418 44.961C121.501 44.961 121.585 44.961 121.697 44.961C121.809 44.961 121.921 44.9331 122.033 44.9331L121.892 45.5187Z" fill="white"/>
<path d="M121.892 45.5187C121.781 45.5465 121.641 45.6022 121.445 45.6302C121.277 45.658 121.11 45.6859 120.914 45.6859C120.439 45.6859 120.103 45.5744 119.852 45.3792C119.628 45.1841 119.516 44.8774 119.516 44.487C119.516 44.4034 119.516 44.3476 119.544 44.2639C119.544 44.1804 119.571 44.0967 119.571 44.013L120.131 41.3364H119.18L119.292 40.8067L120.271 40.6394L120.578 39.106H121.558L121.25 40.6116H122.759L122.62 41.3364H121.11L120.578 43.9294C120.551 44.013 120.551 44.0688 120.551 44.1246C120.551 44.1804 120.523 44.2639 120.523 44.3197C120.523 44.5428 120.578 44.6822 120.719 44.7937C120.858 44.9052 121.082 44.961 121.418 44.961C121.501 44.961 121.585 44.961 121.697 44.961C121.809 44.961 121.921 44.9331 122.033 44.9331L121.892 45.5187Z" stroke="white" stroke-width="0.0343249" stroke-miterlimit="10"/>
<path d="M128.996 45.4907C128.912 45.5185 128.828 45.5185 128.744 45.5465C128.66 45.5465 128.576 45.5743 128.465 45.5743C128.157 45.5743 127.933 45.5185 127.766 45.3791C127.598 45.2398 127.514 45.0446 127.514 44.7937C127.317 45.0446 127.094 45.2398 126.843 45.407C126.563 45.5743 126.227 45.658 125.808 45.658C125.5 45.658 125.221 45.6022 124.997 45.5185C124.773 45.407 124.578 45.2955 124.438 45.1282C124.298 44.9609 124.186 44.7658 124.13 44.5428C124.074 44.3197 124.046 44.0687 124.046 43.8178C124.046 43.6226 124.074 43.4275 124.102 43.2045C124.13 42.9814 124.186 42.7862 124.242 42.5632C124.326 42.2565 124.438 41.9777 124.578 41.7267C124.717 41.4758 124.885 41.2527 125.08 41.0576C125.277 40.8624 125.5 40.723 125.752 40.6115C126.003 40.5 126.283 40.4442 126.591 40.4442C126.815 40.4442 127.01 40.4721 127.178 40.5279C127.346 40.5836 127.485 40.6394 127.625 40.723C127.737 40.8066 127.849 40.8903 127.933 41.0018C128.017 41.1134 128.073 41.2249 128.129 41.3364L128.381 40.5557H129.164L128.381 44.3197C128.352 44.4033 128.352 44.487 128.352 44.5706C128.352 44.7379 128.408 44.8494 128.52 44.8773C128.632 44.933 128.828 44.933 129.052 44.9609L128.996 45.4907ZM127.793 42.8141C127.793 42.7304 127.821 42.6468 127.821 42.5632C127.821 42.4795 127.849 42.3958 127.849 42.3401C127.849 42.0334 127.766 41.7825 127.598 41.5595C127.43 41.3364 127.15 41.2249 126.731 41.2249C126.311 41.2249 126.003 41.3643 125.78 41.6152C125.556 41.8662 125.361 42.2286 125.248 42.7026C125.193 42.8977 125.137 43.065 125.109 43.2323C125.08 43.3996 125.053 43.5669 125.053 43.7063C125.053 44.0687 125.137 44.3476 125.304 44.5706C125.472 44.7937 125.752 44.8773 126.115 44.8773C126.563 44.8773 126.926 44.71 127.178 44.4033C127.43 44.0967 127.625 43.6506 127.737 43.0929L127.793 42.8141Z" fill="white"/>
<path d="M128.996 45.4907C128.912 45.5185 128.828 45.5185 128.744 45.5465C128.66 45.5465 128.576 45.5743 128.465 45.5743C128.157 45.5743 127.933 45.5185 127.766 45.3791C127.598 45.2398 127.514 45.0446 127.514 44.7937C127.317 45.0446 127.094 45.2398 126.843 45.407C126.563 45.5743 126.227 45.658 125.808 45.658C125.5 45.658 125.221 45.6022 124.997 45.5185C124.773 45.407 124.578 45.2955 124.438 45.1282C124.298 44.9609 124.186 44.7658 124.13 44.5428C124.074 44.3197 124.046 44.0687 124.046 43.8178C124.046 43.6226 124.074 43.4275 124.102 43.2045C124.13 42.9814 124.186 42.7862 124.242 42.5632C124.326 42.2565 124.438 41.9777 124.578 41.7267C124.717 41.4758 124.885 41.2527 125.08 41.0576C125.277 40.8624 125.5 40.723 125.752 40.6115C126.003 40.5 126.283 40.4442 126.591 40.4442C126.815 40.4442 127.01 40.4721 127.178 40.5279C127.346 40.5836 127.485 40.6394 127.625 40.723C127.737 40.8066 127.849 40.8903 127.933 41.0018C128.017 41.1134 128.073 41.2249 128.129 41.3364L128.381 40.5557H129.164L128.381 44.3197C128.352 44.4033 128.352 44.487 128.352 44.5706C128.352 44.7379 128.408 44.8494 128.52 44.8773C128.632 44.933 128.828 44.933 129.052 44.9609L128.996 45.4907ZM127.793 42.8141C127.793 42.7304 127.821 42.6468 127.821 42.5632C127.821 42.4795 127.849 42.3958 127.849 42.3401C127.849 42.0334 127.766 41.7825 127.598 41.5595C127.43 41.3364 127.15 41.2249 126.731 41.2249C126.311 41.2249 126.003 41.3643 125.78 41.6152C125.556 41.8662 125.361 42.2286 125.248 42.7026C125.193 42.8977 125.137 43.065 125.109 43.2323C125.08 43.3996 125.053 43.5669 125.053 43.7063C125.053 44.0687 125.137 44.3476 125.304 44.5706C125.472 44.7937 125.752 44.8773 126.115 44.8773C126.563 44.8773 126.926 44.71 127.178 44.4033C127.43 44.0967 127.625 43.6506 127.737 43.0929L127.793 42.8141Z" stroke="white" stroke-width="0.0343249" stroke-miterlimit="10"/>
<path d="M132.798 45.4907C132.63 45.5464 132.463 45.5744 132.267 45.5744C131.904 45.5744 131.624 45.4907 131.456 45.3513C131.288 45.2119 131.176 44.9888 131.176 44.7101C131.176 44.6543 131.176 44.5985 131.176 44.5427C131.176 44.487 131.204 44.4312 131.204 44.3476L132.463 38.2695H133.441L132.183 44.3476C132.155 44.4312 132.155 44.5149 132.155 44.5707C132.155 44.7101 132.211 44.8216 132.323 44.8773C132.435 44.9331 132.63 44.961 132.882 44.961L132.798 45.4907Z" fill="white"/>
<path d="M132.798 45.4907C132.63 45.5464 132.463 45.5744 132.267 45.5744C131.904 45.5744 131.624 45.4907 131.456 45.3513C131.288 45.2119 131.176 44.9888 131.176 44.7101C131.176 44.6543 131.176 44.5985 131.176 44.5427C131.176 44.487 131.204 44.4312 131.204 44.3476L132.463 38.2695H133.441L132.183 44.3476C132.155 44.4312 132.155 44.5149 132.155 44.5707C132.155 44.7101 132.211 44.8216 132.323 44.8773C132.435 44.9331 132.63 44.961 132.882 44.961L132.798 45.4907Z" stroke="white" stroke-width="0.0343249" stroke-miterlimit="10"/>
<path d="M26.2018 0H0V6.329H26.2018V0Z" fill="#FDC82F"/>
<path d="M23.3495 11.013C23.685 11.9052 23.4334 12.7974 23.0978 13.355C22.8182 13.8569 22.0632 14.6097 21.2242 14.8327C21.6717 14.8327 22.175 15.1952 22.203 15.948C22.203 16.171 22.3428 19.1822 22.3428 19.1822H19.7142L19.6303 16.4777C19.6024 16.171 19.7142 15.4182 18.5397 15.4182H16.9179L15.8833 19.0707H13.031L15.8273 9.42377H9.75924C10.5982 9.45171 11.7167 9.64681 12.276 10.3439C13.003 11.2082 12.7793 12.2955 12.4717 12.881C12.4158 12.9925 11.9684 13.7732 11.1854 14.1357C11.2413 14.1636 11.8845 14.5539 12.0802 15.223C12.3879 16.1431 12.0243 17.4814 11.3531 18.039C10.8498 18.4572 10.4304 19.0427 7.94162 19.0427H2.23708L5.03342 9.3959H0V25.9572H26.2018V9.50743H20.8328C21.6997 9.53529 22.8741 9.75834 23.3495 11.013Z" fill="#008542"/>
<path d="M7.27062 11.4312L6.76727 13.2156H9.11618C9.81532 13.2156 10.2907 12.7695 10.2907 12.1561C10.2907 11.71 9.89915 11.4312 9.45174 11.4312H7.27062Z" fill="#008542"/>
<path d="M8.1375 15.0558H6.23599L5.62079 17.1469H7.71805C8.89251 17.1469 9.08827 16.5334 9.20013 16.3382C9.28404 16.171 9.33992 15.7249 9.22807 15.5297C9.11621 15.3067 9.06033 15.0558 8.1375 15.0558Z" fill="#008542"/>
<path d="M18.0364 11.4312C18.0364 11.487 17.4491 13.6059 17.4491 13.6059H19.5464C20.7209 13.6059 21.1123 12.7416 21.1123 12.2955C21.1123 12.1003 21.0844 11.4312 20.1057 11.4312H18.0364Z" fill="#008542"/>
<path d="M56.2626 11.7937L56.9057 9.56323H48.9921L46.2516 19.2101H54.333L54.9762 16.9517H50.0546L50.502 15.4462H54.5008L55.144 13.1878H51.1452L51.5368 11.7937H56.2626Z" fill="#008542"/>
<path d="M77.8779 12.2956C78.4092 10.4276 77.5983 9.56323 74.3545 9.56323H73.2919H69.7965L67.4196 17.9276L67.0561 19.1822H67.4196H70.2439L71.1947 15.8086H72.1454C72.7326 15.8086 73.0962 15.8644 73.3199 16.0316C73.6555 16.2826 73.5995 16.7287 73.3758 17.4815C73.3479 17.5373 73.3479 17.593 73.3199 17.6488C73.1242 18.4015 73.0402 18.9591 73.0682 19.1543H73.3199H76.284L76.3679 18.8476C75.9764 18.8476 76.1442 18.4295 76.5077 17.1747C77.067 15.2231 76.5077 15.0001 75.6129 14.6098C76.7874 14.3309 77.5424 13.4109 77.8779 12.2956ZM74.802 12.7974C74.6341 13.4109 74.1308 13.6618 73.3199 13.7176H73.0402H71.7819L72.3412 11.7937H73.3199H73.8232C74.5223 11.7937 74.9697 12.1283 74.802 12.7974Z" fill="#008542"/>
<path d="M130.925 9.28436C128.492 9.28436 126.423 10.3159 125.835 12.3791C124.773 16.0594 130.645 15.0557 130.226 16.5334C130.114 16.9795 129.499 17.2583 128.716 17.2583C128.408 17.2583 128.101 17.1747 127.877 17.0074C127.653 16.8401 127.541 16.5892 127.569 16.2546H124.521C124.102 17.9833 125.332 19.4888 127.905 19.4888C130.561 19.4888 132.771 18.4014 133.386 16.1709C134.393 12.658 128.576 13.5502 128.995 12.1003C129.079 11.7658 129.443 11.5427 130.17 11.5427C130.477 11.5427 130.757 11.5984 130.925 11.71C131.121 11.8215 131.232 12.0445 131.176 12.3791H134.196C134.42 10.6784 133.581 9.28436 130.925 9.28436Z" fill="#008542"/>
<path d="M108.862 9.56323H107.799H104.276L101.535 19.2101H104.695L105.674 15.8365H106.625C107.212 15.8365 107.575 15.8923 107.799 16.0595C108.135 16.3105 108.079 16.7566 107.855 17.5093C107.827 17.5651 107.827 17.6208 107.799 17.6767C107.603 18.4295 107.52 18.9871 107.548 19.1822H107.799H110.763L110.847 18.8756C110.484 18.8756 110.651 18.4573 111.015 17.2027C111.575 15.251 111.015 15.0279 110.12 14.6376C111.267 14.3309 112.022 13.4945 112.357 12.4629C112.385 12.4071 112.413 12.3513 112.413 12.2678C112.609 11.5428 112.609 10.9573 112.357 10.5112C111.882 9.86994 110.819 9.56323 108.862 9.56323ZM109.309 12.7974C109.141 13.4109 108.638 13.6618 107.827 13.7176H107.548H106.261L106.82 11.7937H107.799H108.303C109.029 11.7937 109.477 12.1283 109.309 12.7974Z" fill="#008542"/>
<path d="M58.8913 9.56323L58.1922 12.1004H61.0445L59.0031 19.2101H62.1631L64.2044 12.1004H67.0566L67.4202 10.8179L67.7837 9.56323H67.4202H58.8913Z" fill="#008542"/>
<path d="M42.896 9.56323H41.6377H38.2541L35.4857 19.2101H38.6736L39.5125 16.199H41.1064C41.2742 16.199 41.4419 16.199 41.6377 16.171C44.0985 16.0038 45.5526 14.7492 46.1119 12.7974C46.6711 10.8179 45.6924 9.56323 42.896 9.56323ZM43.0918 12.8254C42.8681 13.6061 42.3088 13.9127 41.6377 13.9406H40.1836L40.7708 11.7937H41.6377H41.6656C42.3648 11.7937 43.3155 11.9052 43.0918 12.8254Z" fill="#008542"/>
<path d="M122.284 19.2101L121.557 9.56323H118.314L118.09 9.86994L112.273 18.9034L112.077 19.2101H112.273H115.21L115.936 17.9554H118.117H119.097V19.2101H122.284ZM118.117 15.9201H117.139L118.117 14.1637L119.097 12.4629L119.124 15.9201H118.117Z" fill="#008542"/>
<path d="M101.032 11.9889C101.563 10.0651 99.9971 9.56323 97.8162 9.56323H95.7747H93.1743L90.4337 19.2101H95.1596C95.3551 19.2101 95.5792 19.2101 95.7747 19.1822C97.9556 19.0707 99.5776 18.29 100.137 16.3105C100.444 15.251 100.137 14.3588 99.158 14.08C99.9132 13.6896 100.752 12.9648 101.032 11.9889ZM97.2566 16.0595C97.0611 16.7566 96.5022 16.9238 95.7747 16.9517H95.6346H94.2366L94.7401 15.1953H95.747H95.7747C96.7816 15.1674 97.5083 15.2231 97.2566 16.0595ZM97.9002 12.5744C97.7323 13.132 97.2012 13.4109 96.5576 13.4109H95.7747H95.2435L95.6908 11.7937H95.747H96.7816C97.5083 11.7937 98.1234 11.8217 97.9002 12.5744Z" fill="#008542"/>
<path d="M84.4495 19.2936C86.7428 18.7639 88.7558 17.0353 89.5387 14.303C90.2662 11.7658 89.3432 9.28436 85.876 9.28436C85.4002 9.28436 84.8967 9.34008 84.4218 9.45161C82.0446 9.98137 80.0873 11.7658 79.3602 14.303C78.4375 17.5929 79.9195 19.4609 82.9676 19.4609C83.4988 19.4609 83.9745 19.4051 84.4495 19.2936ZM82.5757 14.3308C82.856 13.355 83.4711 12.2119 84.4495 11.7936C84.6735 11.71 84.9252 11.6542 85.2047 11.6542C86.6026 11.6264 86.7428 12.9925 86.3794 14.3308C86.0438 15.5854 85.4002 16.5892 84.478 16.9795C84.2263 17.0631 83.9745 17.1189 83.6943 17.1189C82.157 17.0911 82.1847 15.5576 82.5757 14.3308Z" fill="#008542"/>
<path d="M26.2018 9.5075V6.32906H0V9.5075H5.03342L2.23708 19.1265H7.96959C10.4583 19.1265 10.8778 18.541 11.3812 18.1227C12.0523 17.5651 12.4158 16.2268 12.1082 15.3068C11.8845 14.6376 11.2693 14.2472 11.2133 14.2194C11.9963 13.857 12.4437 13.0763 12.4997 12.9648C12.7793 12.3793 13.003 11.2919 12.3039 10.4276C11.7167 9.73055 10.5982 9.5075 9.78718 9.5075C9.75924 9.5075 9.75924 9.5075 9.7313 9.5075H15.8552L13.0589 19.1543H15.8833L16.9179 15.502H18.5397C19.7142 15.502 19.6024 16.2268 19.6303 16.5614L19.7142 19.2658H22.3428C22.3428 19.2658 22.2309 16.2547 22.203 16.0316C22.175 15.251 21.6437 14.9164 21.2242 14.9164C22.0632 14.6933 22.7902 13.9127 23.0978 13.4387C23.4334 12.8811 23.685 11.9889 23.3495 11.0967C22.8741 9.84207 21.6997 9.59117 20.8048 9.56322C20.7768 9.56322 20.7489 9.56322 20.7209 9.56322H26.2018V9.5075ZM9.22791 16.3384C9.11606 16.5335 8.92038 17.1469 7.74588 17.1469H5.64862L6.26382 15.0559H8.16534C9.08812 15.0559 9.14408 15.3068 9.28388 15.5298C9.36779 15.7529 9.31183 16.199 9.22791 16.3384ZM10.2906 12.1562C10.2906 12.7696 9.78718 13.2157 9.11606 13.2157H6.76716L7.2705 11.4313H9.45162C9.89904 11.4313 10.2906 11.7101 10.2906 12.1562ZM21.1124 12.2956C21.1124 12.7417 20.7209 13.606 19.5464 13.606H17.4492C17.4492 13.606 18.0364 11.4871 18.0364 11.4313H20.1057C21.0565 11.4313 21.1124 12.1004 21.1124 12.2956Z" fill="white"/>
</svg>
