<svg width="32" height="32" viewBox="0 0 32 32" fill="none" xmlns="http://www.w3.org/2000/svg">
<circle cx="16" cy="16" r="16" fill="white"/>
<circle cx="16" cy="16" r="15.5" stroke="#00B85B" stroke-opacity="0.4"/>
<path d="M16.02 6.91C12.71 6.91 10.02 9.6 10.02 12.91V15.8C10.02 16.41 9.75997 17.34 9.44997 17.86L8.29997 19.77C7.58997 20.95 8.07997 22.26 9.37997 22.7C13.69 24.14 18.34 24.14 22.65 22.7C23.86 22.3 24.39 20.87 23.73 19.77L22.58 17.86C22.28 17.34 22.02 16.41 22.02 15.8V12.91C22.02 9.61 19.32 6.91 16.02 6.91Z" stroke="#008542" stroke-miterlimit="10" stroke-linecap="round"/>
<path d="M17.87 7.2C17.56 7.11 17.24 7.04 16.91 7C15.95 6.88 15.03 6.95 14.17 7.2C14.46 6.46 15.18 5.94 16.02 5.94C16.86 5.94 17.58 6.46 17.87 7.2Z" stroke="#008542" stroke-miterlimit="10" stroke-linecap="round" stroke-linejoin="round"/>
<path d="M19.02 23.06C19.02 24.71 17.67 26.06 16.02 26.06C15.2 26.06 14.44 25.72 13.9 25.18C13.36 24.64 13.02 23.88 13.02 23.06" stroke="#008542" stroke-miterlimit="10"/>
</svg>
