<svg width="32" height="32" viewBox="0 0 32 32" fill="none" xmlns="http://www.w3.org/2000/svg">
<path d="M16.2134 14.4966C16.0801 14.4833 15.9201 14.4833 15.7734 14.4966C12.6001 14.3899 10.0801 11.7899 10.0801 8.58992C10.0801 5.32326 12.7201 2.66992 16.0001 2.66992C19.2667 2.66992 21.9201 5.32326 21.9201 8.58992C21.9067 11.7899 19.3867 14.3899 16.2134 14.4966Z" stroke="#666666" stroke-width="1.5" stroke-linecap="round" stroke-linejoin="round"/>
<path d="M9.54695 19.4101C6.32029 21.5701 6.32029 25.0901 9.54695 27.2367C13.2136 29.6901 19.227 29.6901 22.8936 27.2367C26.1203 25.0767 26.1203 21.5567 22.8936 19.4101C19.2403 16.9701 13.227 16.9701 9.54695 19.4101Z" stroke="#666666" stroke-width="1.5" stroke-linecap="round" stroke-linejoin="round"/>
</svg>
