<svg width="32" height="32" viewBox="0 0 32 32" fill="none" xmlns="http://www.w3.org/2000/svg">
<circle cx="16" cy="16" r="16" fill="white"/>
<circle cx="16" cy="16" r="15.5" stroke="#00B85B" stroke-opacity="0.4"/>
<path d="M14.75 6.45001C15.45 5.86001 16.58 5.86001 17.26 6.45001L18.84 7.80001C19.14 8.05001 19.71 8.26001 20.11 8.26001H21.81C22.87 8.26001 23.74 9.13001 23.74 10.19V11.89C23.74 12.29 23.95 12.85 24.2 13.15L25.55 14.73C26.14 15.43 26.14 16.56 25.55 17.24L24.2 18.82C23.95 19.12 23.74 19.68 23.74 20.08V21.78C23.74 22.84 22.87 23.71 21.81 23.71H20.11C19.71 23.71 19.15 23.92 18.85 24.17L17.27 25.52C16.57 26.11 15.44 26.11 14.76 25.52L13.18 24.17C12.88 23.92 12.31 23.71 11.92 23.71H10.17C9.11 23.71 8.24 22.84 8.24 21.78V20.07C8.24 19.68 8.04 19.11 7.79 18.82L6.44 17.23C5.86 16.54 5.86 15.42 6.44 14.73L7.79 13.14C8.04 12.84 8.24 12.28 8.24 11.89V10.2C8.24 9.14001 9.11 8.27001 10.17 8.27001H11.9C12.3 8.27001 12.86 8.06001 13.16 7.81001L14.75 6.45001Z" stroke="#008542" stroke-linecap="round" stroke-linejoin="round"/>
<path d="M16 12.13V16.96" stroke="#008542" stroke-linecap="round" stroke-linejoin="round"/>
<path d="M15.9945 20H16.0035" stroke="#008542" stroke-linecap="round" stroke-linejoin="round"/>
</svg>
